<?xml version="1.0" encoding="UTF-8"?>
<svg id="_レイヤー_1" data-name="レイヤー 1" xmlns="http://www.w3.org/2000/svg" viewBox="0 0 32.2 32.27">
  <defs>
    <style>
      .cls-1 {
        fill: #2f2f2f;
      }

      .cls-1, .cls-2 {
        stroke-width: 0px;
      }

      .cls-2 {
        fill: #e2421f;
      }
    </style>
  </defs>
  <rect class="cls-1" x=".2" y=".27" width="32" height="32"/>
  <path class="cls-2" d="m7.56,22.12c.06.9.06,1.8.03,2.7-.06.87-.23,1.77-.39,2.64-.13.19-.32.29-.55.29-.26-.03-.51-.13-.71-.29-.19-.16-.39-.35-.58-.55-.16-.23-.29-.45-.35-.71-.06-.06-.06-.13,0-.16.35-.42.55-.87.61-1.42.06-.51.06-1.03.06-1.58.13-2.7.19-5.43.23-8.13.06-1.41-.26-2.77-1.03-3.99-.13-.13-.19-.29-.23-.48,0-.22.03-.42.1-.61.16.06.32.1.45.16,1.12.96,1.86,2.15,2.25,3.54.06.13.1.23.06.32v.35c0,2.64.03,5.27.03,7.91Zm5.47-12.83c-.13-.13-.26-.13-.35,0-.45.42-.9.87-1.35,1.29-.19.23-.39.42-.58.61-.19.16-.39.19-.64.16-.71-.19-1.22-.64-1.51-1.35-.06-.19-.03-.35.03-.55.06-.16.16-.35.26-.51.1-.13.19-.16.32-.1.13.03.26.1.35.13.16.1.32.06.48-.03.61-.35,1.25-.74,1.9-1.09.1-.13.13-.26.1-.39-.16-.64-.35-1.29-.55-1.96-.06-.42.1-.58.55-.51.77.19,1.35.64,1.77,1.35.13.23.29.26.48.06.58-.35,1.16-.71,1.77-1.03.03-.06.06-.1.16-.06-.03.03-.1.1-.13.16l-1.64,1.8c-.06.13-.06.26-.03.39.1.55.23,1.09.35,1.64.06.39-.1.64-.51.71-.42-.23-.8-.48-1.22-.71Zm4.05,6.85c-.19.19-.39.32-.64.45-.51.29-1,.61-1.45.96,0,.13.03.23.1.32.13.22.26.45.39.64-.16.06-.35.13-.55.26-.48.23-.96.48-1.48.74-.03.03-.03.06-.06.13.03,0,.06-.03.1-.06.32-.16.64-.32.93-.51.06-.03.13-.06.19-.1.35.03.71.13,1,.32.32.16.61.39.84.68.06.1.19.13.32.13.48-.19.96-.39,1.45-.61.06-.03.13-.06.16-.06,0,.06-.03.13-.06.16-.19.45-.48.83-.87,1.12-.39.29-.8.55-1.22.77-1.06.64-2.09,1.29-3.15,1.96-.26.23-.55.39-.87.58-.8.45-1.61.9-2.38,1.35t-.03.03c-.13.1-.29.19-.45.26-.16.1-.32.06-.45-.06-.13-.1-.23-.26-.29-.39-.06-.13-.03-.26.1-.39.64-.51,1.35-1,2.06-1.48.03-.06,0-.16-.06-.22-.23-.26-.48-.51-.71-.77-.16-.16-.19-.32-.1-.51.1-.16.23-.29.35-.35.48-.42.96-.84,1.38-1.25,0-.26-.1-.42-.26-.58-.55-.22-1-.58-1.29-1.06-.29-.45-.51-.96-.68-1.48.03-.19.06-.35.16-.51.87-.8,1.7-1.61,2.54-2.44.06-.06.13-.16.16-.29-.13.03-.26.03-.39.03-.35.19-.74.29-1.12.32-.32-.03-.64-.13-.9-.32-.03-.06-.06-.13-.06-.23h.64c1.48-.71,2.93-1.48,4.31-2.31.32-.23.68-.26,1.06-.1.29.1.39.26.23.51-.26.32-.55.61-.9.87-.8.58-1.61,1.12-2.44,1.67-.19.13-.39.26-.58.42-.39.35-.74.71-1.12,1.12-.26.32-.51.64-.8.96-.16.13-.16.26,0,.42.06.06.16.13.29.23.13.06.23.06.32-.03.1-.13.16-.23.19-.32.93-1.67,2.35-2.57,4.24-2.73.8-.1,1.48.16,2.03.77.06.13.1.23.13.35-.03.26-.13.48-.29.64Zm-5.82,6.14c.06.1.13.19.23.32.13.03.26.03.35.03.51-.32.96-.67,1.42-1.09.45-.42.8-.9,1.03-1.45.13-.26.06-.32-.19-.22-.51.1-1.03.29-1.51.55-.48.26-.93.68-1.41,1.19-.23.26-.23.48.1.67Zm.48-3.5c.16,0,.32-.06.45-.16,1.03-1.09,2.03-2.19,3.02-3.28,0-.06.03-.13.1-.19-.1-.03-.16-.06-.23-.06-.48.13-1,.23-1.48.35-.23.13-.45.26-.71.42-.45.19-.77.55-.93,1-.19.45-.39.87-.58,1.29.1.23.23.45.35.64Zm11.16,3.83c0,.39-.1.77-.29,1.12-.19.35-.42.71-.64,1.03-.26.13-.48.13-.71,0-.45-.32-.93-.61-1.41-.93s-.9-.71-1.25-1.16l-.55-.71c-.19-.29-.35-.58-.48-.9,0-.06.03-.13.06-.23.03.03.06.1.13.16.22.42.55.77.93,1.06.39.26.77.51,1.19.77.45.19.9.16,1.25-.1.39-.29.58-.64.61-1.12-.03-2.64-.06-5.31-.1-7.97-.03-.26-.13-.32-.32-.13-.51.29-1.06.61-1.61.9-.48.19-1,.39-1.54.51-.26,0-.51-.06-.71-.23-.16-.13-.19-.26-.13-.42.03-.13.13-.26.29-.29.39-.16.74-.39,1.06-.64.71-.67,1.51-1.16,2.41-1.48.48-.16.74-.48.74-1,.06-.77.1-1.58.1-2.38-.03-.13-.1-.26-.19-.35-.1-.13-.16-.23-.22-.35-.06-.06-.1-.13-.1-.19.06-.1.16-.13.26-.16.8-.13,1.48.1,2.03.74.29.26.32.55.1.9,0,.13-.03.29-.06.42,0,.29-.03.61-.1.9-.06.19-.06.42,0,.64.03.23.22.35.48.39.16.03.26.16.35.35.06.19.1.35.06.51-.19.13-.35.19-.58.16-.42-.13-.64.03-.64.48-.19,1.54-.39,3.09-.55,4.63v.8h-.03c.03,1.41.1,2.8.16,4.24Zm-5.18-17.01c-.1-.03-.19-.1-.26-.13.06-.13.16-.19.26-.26,1.29-.48,2.6-.93,3.95-1.38h.26c-.03.06-.06.13-.13.19-.1.06-.16.1-.26.16-.42.03-.64.29-.71.74-.1.58-.45.9-1.03.93-.71-.06-1.42-.16-2.09-.26Zm2.54,13.66c-.29.26-.64.29-1.03.06-.26-.03-.45-.06-.67-.06-.13,0-.26,0-.39-.03,0-.13.06-.26.16-.35.35-.29.55-.64.51-1.06-.06-.16-.16-.29-.26-.42-.13-.13-.29-.23-.48-.29l-.35-.51c.22-.19.48-.32.74-.35.77.1,1.38.45,1.87,1.03.13.29.26.64.32,1,.03.42-.1.74-.42,1Zm5.27-13.98c-.03-.71-.42-1.06-1.16-1.06-.58.1-1.16,0-1.7-.26-.06-.03-.13-.06-.16-.13.03-.06.06-.1.1-.16.64-.39,1.32-.74,2.03-1.03.35-.13.71-.16,1.06-.06.9.29,1.58.87,2.03,1.67.1.19.13.42.1.67-.19,1.7-.35,3.38-.45,5.08-.03,1.67-.03,3.34.03,4.98.03,3.38.19,6.69.48,10.03.1,1.58-.39,2.96-1.38,4.15-.23.26-.51.42-.84.51-.35.13-.68.1-.96-.06-.35-.29-.67-.58-1-.9-.96-.8-1.86-1.67-2.76-2.54-.35-.39-.74-.77-1.09-1.19l-.06-.26h.22c.29.16.51.35.77.51.61.42,1.22.84,1.83,1.25.35.26.74.29,1.12.16.35-.13.71-.22,1.06-.39.26-.16.45-.35.61-.64.16-.71.23-2.41.16-5.11-.06-2.73-.16-6.4-.26-11.06,0-1.41.06-2.8.22-4.18Z"/>
</svg>