<svg viewBox="0 0 12 30" fill="none" xmlns="http://www.w3.org/2000/svg">
<path d="M9.01611 15.5L10.0157 15.5294L9.01611 15.5ZM1 0.127813L2.59308 11.5644L11.7009 4.46646L1 0.127813ZM1 28.4526C1.56776 29.2758 1.56805 29.2756 1.56837 29.2754C1.56852 29.2753 1.56887 29.2751 1.56916 29.2749C1.56974 29.2745 1.57045 29.274 1.57127 29.2734C1.57291 29.2723 1.57503 29.2708 1.5776 29.269C1.58276 29.2654 1.58978 29.2605 1.5986 29.2543C1.61623 29.2418 1.64107 29.2242 1.67264 29.2014C1.73578 29.1559 1.82589 29.0898 1.93918 29.004C2.16567 28.8324 2.48537 28.5814 2.86782 28.2572C3.63145 27.6098 4.65198 26.6648 5.68171 25.4711C7.72416 23.1033 9.89452 19.6495 10.0157 15.5294L8.01655 15.4706C7.91487 18.928 6.07717 21.9506 4.16728 24.1647C3.22083 25.2619 2.27911 26.1343 1.57454 26.7316C1.22289 27.0297 0.932002 27.2578 0.731427 27.4098C0.631186 27.4857 0.553644 27.5425 0.502509 27.5794C0.476946 27.5979 0.457997 27.6113 0.446127 27.6197C0.440192 27.6239 0.436028 27.6268 0.433694 27.6284C0.432527 27.6292 0.431817 27.6297 0.431572 27.6299C0.431449 27.63 0.431443 27.63 0.431554 27.6299C0.431609 27.6299 0.431781 27.6298 0.431808 27.6297C0.432009 27.6296 0.432239 27.6294 1 28.4526ZM10.0157 15.5294C10.108 12.3909 8.87697 9.29667 7.39844 6.72715L5.66493 7.72462C7.06153 10.1518 8.09319 12.8645 8.01655 15.4706L10.0157 15.5294Z" fill="black"/>
</svg>
