<svg viewBox="0 0 76 12" fill="none" xmlns="http://www.w3.org/2000/svg">
<path d="M0 9.50001L11.3841 11.433L7.36607 0.607631L0 9.50001ZM75 9.5C75.3996 8.5833 75.3994 8.58321 75.3991 8.58307C75.3989 8.58299 75.3985 8.58282 75.3981 8.58265C75.3973 8.5823 75.3962 8.58183 75.3948 8.58123C75.392 8.58002 75.3881 8.5783 75.3829 8.57608C75.3727 8.57164 75.3577 8.56518 75.3382 8.55678C75.299 8.53998 75.2415 8.51538 75.1661 8.48351C75.0154 8.41977 74.7935 8.32694 74.5055 8.20917C73.9295 7.97364 73.0891 7.63828 72.0253 7.2364C69.8981 6.43282 66.8753 5.36226 63.2858 4.29171C56.1201 2.15456 46.6392 5.72033e-07 37.5 4.17331e-07L37.5 2C46.3608 2 55.6299 4.09544 62.7142 6.20829C66.2497 7.26274 69.2269 8.31718 71.3185 9.10735C72.364 9.50234 73.1877 9.83105 73.7484 10.0604C74.0288 10.175 74.2434 10.2648 74.3871 10.3256C74.459 10.356 74.5131 10.3791 74.5489 10.3945C74.5668 10.4021 74.58 10.4079 74.5887 10.4116C74.593 10.4135 74.5961 10.4148 74.5981 10.4157C74.5991 10.4161 74.5997 10.4164 74.6001 10.4166C74.6003 10.4167 74.6004 10.4167 74.6005 10.4167C74.6005 10.4167 74.6004 10.4167 75 9.5ZM37.5 4.17331e-07C26.7463 4.03771e-07 15.5123 2.98362 8.12501 5.41837L8.75106 7.31786C16.0674 4.9065 27.0632 2 37.5 2L37.5 4.17331e-07Z" fill="black"/>
</svg>
