<svg viewBox="0 0 33 36" fill="none" xmlns="http://www.w3.org/2000/svg">
<path d="M3.4566 31.9134C3.72764 32.172 4.03558 32.3522 4.34035 32.4482L3.24485 33.597C2.94051 33.5006 2.63255 33.3209 2.36197 33.063C2.09108 32.8046 1.89676 32.5056 1.78599 32.2059L2.8811 31.0575C2.99164 31.357 3.18621 31.6558 3.4566 31.9134Z" fill="black"/>
<path d="M3.07151 30.8574L9.55574 24.0527L11.0151 25.4441L4.53083 32.2484C4.22626 32.1514 3.91851 31.9714 3.64766 31.713C3.37718 31.455 3.18248 31.1568 3.07151 30.8574ZM9.64892 25.4166C9.45602 25.2327 9.36012 24.9908 9.37032 24.7691C9.20729 25.0323 9.2428 25.3804 9.47367 25.6005C9.70413 25.8206 10.0534 25.8396 10.3088 25.6639C10.0873 25.6847 9.84197 25.6003 9.64892 25.4166ZM8.98547 26.1119C8.79256 25.9281 8.69676 25.6869 8.70711 25.465C8.54405 25.7286 8.5798 26.0765 8.81022 26.2962C9.04113 26.5163 9.38985 26.535 9.64501 26.3595C9.42455 26.3802 9.17831 26.2963 8.98547 26.1119ZM8.32219 26.8083C8.12936 26.6244 8.03362 26.3828 8.04382 26.1611C7.88064 26.4243 7.91648 26.7725 8.14676 26.9925C8.37744 27.2123 8.72639 27.2313 8.98224 27.0558C8.76116 27.0763 8.51513 26.9922 8.32219 26.8083ZM7.65865 27.5046C7.46575 27.3207 7.37078 27.0791 7.38039 26.8572C7.21714 27.1205 7.25355 27.4681 7.48404 27.6878C7.71449 27.9076 8.06386 27.9269 8.31862 27.7517C8.09752 27.7731 7.85159 27.6884 7.65865 27.5046ZM6.99528 28.2003C6.80268 28.0166 6.70724 27.7754 6.71724 27.5532C6.55425 27.8165 6.5898 28.1647 6.82047 28.3842C7.05155 28.6041 7.40022 28.6233 7.65549 28.4481C7.43433 28.4686 7.18849 28.3846 6.99528 28.2003ZM6.33227 28.8968C6.13966 28.713 6.04395 28.4713 6.05377 28.2493C5.89122 28.5126 5.92633 28.8608 6.15702 29.0799C6.38789 29.3 6.73714 29.319 6.99224 29.144C6.77132 29.1651 6.52491 29.0806 6.33227 28.8968ZM5.66904 29.5923C5.47606 29.4085 5.38057 29.1666 5.39078 28.9453C5.2276 29.2085 5.26336 29.5564 5.49359 29.776C5.72449 29.9961 6.07374 30.015 6.32883 29.8396C6.10748 29.86 5.86148 29.7767 5.66904 29.5923ZM5.00583 30.2886C4.81263 30.1047 4.71713 29.8627 4.72778 29.6411C4.56461 29.9047 4.59993 30.2526 4.83061 30.4725C5.06125 30.6925 5.41052 30.711 5.66535 30.5354C5.44428 30.5567 5.19889 30.4728 5.00583 30.2886ZM5.00241 31.2319C4.78142 31.2523 4.53486 31.1687 4.34221 30.9845C4.14941 30.8006 4.05391 30.5586 4.06417 30.3374C3.90115 30.6 3.93689 30.9483 4.16675 31.1678C4.39787 31.3878 4.74736 31.4074 5.00241 31.2319Z" fill="black"/>
<path d="M12.903 26.0936L12.4499 26.5685L8.36534 22.6731L8.81801 22.1978L12.903 26.0936Z" fill="black"/>
<path d="M11.2238 24.1292C12.367 22.9463 25.3167 9.48201 27.1807 4.83864L26.9408 4.74454C25.1141 9.29411 12.0405 22.9117 11.038 23.9516L10.3198 23.2657C18.6643 15.3 28.3432 0.371218 28.3432 0.371218C28.9598 2.65649 28.6349 3.13786 27.7536 5.33244C25.8324 10.1186 11.7628 24.6452 11.7628 24.6452L11.2238 24.1292Z" fill="black"/>
</svg>
