<svg viewBox="0 0 33 36" fill="none" xmlns="http://www.w3.org/2000/svg">
<path d="M29.4288 31.9144C29.1577 32.173 28.8498 32.3532 28.545 32.4492L29.6405 33.598C29.9449 33.5016 30.2528 33.3218 30.5234 33.064C30.7943 32.8055 30.9886 32.5066 31.0994 32.2069L30.0043 31.0585C29.8937 31.358 29.6992 31.6567 29.4288 31.9144Z" fill="black"/>
<path d="M29.8139 30.8583L23.3296 24.0537L21.8702 25.445L28.3545 32.2494C28.6591 32.1524 28.9669 31.9724 29.2377 31.714C29.5082 31.456 29.7029 31.1578 29.8139 30.8583ZM23.2365 25.4175C23.4294 25.2337 23.5253 24.9918 23.5151 24.7701C23.6781 25.0332 23.6426 25.3814 23.4117 25.6015C23.1812 25.8216 22.832 25.8406 22.5766 25.6649C22.798 25.6857 23.0434 25.6013 23.2365 25.4175ZM23.8999 26.1129C24.0928 25.929 24.1886 25.6878 24.1783 25.466C24.3413 25.7296 24.3056 26.0775 24.0752 26.2972C23.8442 26.5173 23.4955 26.536 23.2404 26.3605C23.4608 26.3812 23.7071 26.2972 23.8999 26.1129ZM24.5632 26.8093C24.756 26.6254 24.8518 26.3837 24.8416 26.1621C25.0047 26.4253 24.9689 26.7735 24.7386 26.9934C24.5079 27.2133 24.159 27.2322 23.9031 27.0568C24.1242 27.0773 24.3702 26.9932 24.5632 26.8093ZM25.2267 27.5056C25.4196 27.3217 25.5146 27.0801 25.505 26.8582C25.6682 27.1215 25.6318 27.4691 25.4013 27.6888C25.1709 27.9086 24.8215 27.9279 24.5668 27.7527C24.7879 27.7741 25.0338 27.6894 25.2267 27.5056ZM25.8901 28.2013C26.0827 28.0175 26.1781 27.7764 26.1681 27.5541C26.3311 27.8175 26.2956 28.1657 26.0649 28.3852C25.8338 28.6051 25.4852 28.6243 25.2299 28.449C25.451 28.4696 25.6969 28.3856 25.8901 28.2013ZM26.5531 28.8978C26.7457 28.714 26.8414 28.4723 26.8316 28.2502C26.9942 28.5136 26.959 28.8618 26.7284 29.0809C26.4975 29.3009 26.1482 29.32 25.8931 29.145C26.1141 29.1661 26.3605 29.0815 26.5531 28.8978ZM27.2163 29.5933C27.4093 29.4095 27.5048 29.1676 27.4946 28.9463C27.6578 29.2095 27.622 29.5574 27.3918 29.7769C27.1609 29.997 26.8116 30.016 26.5566 29.8406C26.7779 29.861 27.0239 29.7777 27.2163 29.5933ZM27.8795 30.2896C28.0727 30.1057 28.1682 29.8637 28.1576 29.642C28.3208 29.9057 28.2854 30.2536 28.0548 30.4735C27.8241 30.6934 27.4749 30.712 27.22 30.5364C27.4411 30.5577 27.6865 30.4737 27.8795 30.2896ZM27.883 31.2329C28.104 31.2532 28.3505 31.1697 28.5432 30.9855C28.736 30.8015 28.8315 30.5596 28.8212 30.3384C28.9842 30.6009 28.9485 30.9493 28.7186 31.1688C28.4875 31.3888 28.138 31.4084 27.883 31.2329Z" fill="black"/>
<path d="M19.9824 26.0946L20.4355 26.5695L24.52 22.6741L24.0674 22.1988L19.9824 26.0946Z" fill="black"/>
<path d="M21.6615 24.1302C20.5183 22.9473 7.56872 9.48298 5.70466 4.83961L5.94459 4.74551C7.77129 9.29509 20.8449 22.9127 21.8474 23.9526L22.5656 23.2667C14.2211 15.3009 4.54214 0.372195 4.54214 0.372195C3.92562 2.65747 4.25044 3.13884 5.13176 5.33342C7.05298 10.1196 21.1226 24.6461 21.1226 24.6461L21.6615 24.1302Z" fill="black"/>
</svg>
