<svg width="307" height="339" viewBox="0 0 307 339" xmlns="http://www.w3.org/2000/svg">
<path d="M303.766 13.2413C302.187 12.1701 300.156 12.001 298.408 12.7903C298.069 12.9594 261.518 28.8008 230.946 12.9594C203.984 -1.0216 178.432 5.63065 166.868 10.1406C163.935 4.33402 157.956 0.275024 151.018 0.275024C141.26 0.275024 133.307 8.2239 133.307 17.9768V161.508C115.426 156.208 98.6168 162.41 85.1357 179.66C73.234 196.629 66.3524 202.267 49.0357 202.661C45.7642 198.49 40.744 195.727 35.047 195.727H18.4071C8.59244 195.727 0.63916 203.676 0.63916 213.485V318.625C0.63916 328.434 8.59244 336.383 18.4071 336.383H35.1598C41.1953 336.383 46.4974 333.339 49.7126 328.772L169.689 338.356C170.817 338.469 172.058 338.525 173.242 338.525C196.143 338.525 215.66 320.88 217.578 297.71L222.88 232.596C223.895 220.307 219.665 208.017 211.26 198.941C202.856 189.808 190.897 184.621 178.488 184.621H168.73V127.964C176.909 124.526 200.994 116.52 225.7 129.374C237.827 135.688 250.519 137.774 262.026 137.774C284.137 137.774 301.849 129.994 302.977 129.543C305.007 128.641 306.305 126.611 306.305 124.413V17.9768C306.361 16.06 305.402 14.256 303.766 13.2413ZM144.588 17.9768C144.588 14.4251 147.465 11.55 151.018 11.55C154.572 11.55 157.449 14.4251 157.449 17.9768V184.621H144.588V17.9768ZM41.6465 318.625C41.6465 322.176 38.7134 325.108 35.1598 325.108H18.4071C14.8535 325.108 11.9204 322.176 11.9204 318.625V213.542C11.9204 209.99 14.8535 207.059 18.4071 207.059H35.1598C38.7134 207.059 41.6465 209.99 41.6465 213.542V318.625ZM178.488 195.896C187.908 195.896 196.594 199.673 202.912 206.608C209.229 213.485 212.332 222.393 211.599 231.751L206.296 296.807C204.83 315.017 188.754 328.603 170.535 327.137L52.8713 317.723V213.88C72.6135 212.583 81.7514 204.24 94.2171 186.425C105.386 172.05 118.528 167.822 133.307 173.572V190.315C133.307 193.416 135.845 195.953 138.947 195.953H178.488V195.896ZM295.08 120.523C285.321 124.018 256.159 132.474 230.946 119.395C205.337 106.091 181.083 111.447 168.73 115.9V21.5284C176.909 18.0895 200.994 10.0843 225.7 22.9378C252.267 36.6933 281.317 30.3793 295.023 26.0384V120.523H295.08Z"/>
</svg>
